<svg id="svg" version="1.1" xmlns="http://www.w3.org/2000/svg" xmlns:xlink="http://www.w3.org/1999/xlink" width="400" height="330.11152416356873" viewBox="0, 0, 400,330.11152416356873"><g id="svgg"><path id="path0" d="M242.962 53.262 C 242.895 53.489,242.516 55.533,242.120 57.803 C 238.490 78.638,236.026 92.634,235.518 95.293 C 235.380 96.020,234.719 99.959,234.049 104.046 C 233.379 108.134,232.699 111.998,232.538 112.634 C 232.376 113.270,231.620 117.432,230.857 121.883 C 230.094 126.334,228.919 133.171,228.245 137.077 C 227.571 140.983,227.072 144.275,227.134 144.393 C 227.197 144.511,229.738 143.647,232.782 142.474 C 235.825 141.300,241.511 139.135,245.417 137.663 C 249.323 136.191,252.706 134.818,252.935 134.613 C 253.164 134.407,254.663 130.307,256.266 125.501 C 260.751 112.055,260.593 111.402,259.423 138.563 C 258.190 167.191,257.944 173.225,257.320 190.027 C 256.950 199.984,256.499 208.754,256.318 209.515 C 256.137 210.277,255.464 216.102,254.823 222.461 C 254.181 228.819,253.511 234.690,253.333 235.508 C 252.910 237.452,250.994 256.648,251.191 256.967 C 251.274 257.102,255.695 255.896,261.014 254.288 C 271.153 251.222,271.625 251.080,286.705 246.567 C 291.883 245.017,296.788 243.541,297.605 243.287 C 298.423 243.032,301.618 242.070,304.707 241.149 C 307.795 240.227,311.288 239.173,312.469 238.806 C 314.391 238.209,330.818 233.276,356.235 225.663 C 361.140 224.194,365.563 222.893,366.064 222.772 C 366.566 222.651,367.049 222.434,367.139 222.289 C 367.281 222.059,357.371 213.409,340.987 199.461 C 338.292 197.166,333.781 193.301,330.964 190.873 C 328.146 188.444,325.322 186.068,324.688 185.592 C 324.053 185.116,320.710 181.654,317.258 177.898 C 313.807 174.143,306.756 166.506,301.591 160.927 C 282.487 140.295,279.219 136.755,276.796 134.068 C 275.434 132.557,271.225 128.010,267.443 123.964 C 263.661 119.917,260.650 116.472,260.752 116.307 C 260.925 116.026,262.968 116.830,275.145 121.968 C 280.520 124.237,280.546 124.239,283.833 122.901 C 285.140 122.368,287.250 121.563,288.522 121.112 C 289.794 120.661,292.023 119.811,293.476 119.223 C 296.065 118.176,302.907 115.553,314.451 111.183 C 322.487 108.140,324.782 107.019,322.974 107.019 C 322.757 107.019,322.190 106.646,321.714 106.190 C 321.238 105.734,320.243 104.953,319.504 104.456 C 316.420 102.381,308.844 97.222,301.644 92.296 C 297.416 89.403,293.369 86.664,292.651 86.210 C 291.528 85.499,281.716 78.847,259.804 63.939 C 242.738 52.327,243.159 52.594,242.962 53.262 M64.945 93.412 C 64.854 93.559,65.050 94.859,65.379 96.303 C 67.862 107.174,68.452 109.713,68.867 111.313 C 69.126 112.312,69.876 115.508,70.534 118.415 C 72.080 125.242,72.955 128.989,74.659 136.086 C 76.352 143.134,76.487 144.733,75.821 149.794 C 75.533 151.974,74.634 159.331,73.822 166.144 C 73.010 172.956,71.901 182.246,71.358 186.788 C 70.815 191.329,70.450 195.440,70.547 195.922 C 70.644 196.405,70.567 196.896,70.374 197.015 C 69.844 197.343,69.922 200.826,70.460 200.826 C 70.699 200.826,72.792 200.071,75.112 199.149 C 77.432 198.226,82.773 196.157,86.981 194.550 C 91.189 192.944,97.531 190.497,101.073 189.113 C 104.616 187.729,110.339 185.546,113.790 184.263 C 117.242 182.980,120.289 181.819,120.562 181.683 C 121.115 181.407,125.197 179.783,130.548 177.711 C 134.958 176.002,134.873 176.196,132.471 173.327 C 131.369 172.010,129.093 169.289,127.414 167.278 C 125.734 165.268,122.353 161.276,119.901 158.407 C 117.448 155.537,115.151 152.797,114.796 152.317 C 114.441 151.838,112.653 149.661,110.823 147.481 C 106.749 142.630,105.618 141.141,105.112 139.967 C 104.870 139.405,104.467 139.059,104.053 139.059 C 103.686 139.059,103.386 138.909,103.386 138.725 C 103.386 138.542,102.960 137.946,102.439 137.402 C 101.919 136.857,100.990 135.802,100.375 135.057 C 98.437 132.709,95.738 129.499,90.648 123.491 C 87.934 120.289,85.268 117.106,84.723 116.420 C 84.178 115.733,82.461 113.671,80.906 111.838 C 73.492 103.095,69.992 98.921,67.756 96.156 C 65.189 92.982,65.202 92.995,64.945 93.412 M103.716 137.057 C 103.716 137.431,103.865 137.737,104.046 137.737 C 104.228 137.737,104.377 137.523,104.377 137.261 C 104.377 137.000,104.228 136.694,104.046 136.581 C 103.865 136.469,103.716 136.683,103.716 137.057 M47.727 233.860 C 47.533 234.174,47.008 238.239,45.746 249.216 C 45.474 251.577,45.107 254.178,44.929 254.996 C 44.752 255.813,44.221 259.752,43.750 263.749 C 43.278 267.746,42.675 272.576,42.411 274.484 C 42.146 276.391,41.273 283.154,40.470 289.513 C 39.667 295.871,38.928 301.371,38.828 301.734 C 38.728 302.097,38.203 306.185,37.661 310.818 C 37.118 315.450,36.591 319.723,36.489 320.314 C 36.351 321.115,36.425 321.387,36.781 321.387 C 37.243 321.387,51.219 317.262,58.643 314.934 C 60.649 314.305,62.424 313.790,62.587 313.790 C 62.750 313.790,64.527 313.274,66.537 312.643 C 68.546 312.012,75.169 310.002,81.255 308.177 C 87.341 306.352,94.030 304.341,96.119 303.709 C 98.208 303.076,104.364 301.221,109.800 299.586 C 121.343 296.114,120.452 296.602,118.416 294.864 C 117.521 294.101,114.091 291.098,110.793 288.192 C 107.496 285.285,104.003 282.238,103.031 281.420 C 102.060 280.603,98.647 277.630,95.447 274.814 C 92.248 271.998,86.987 267.391,83.758 264.575 C 80.528 261.759,75.336 257.222,72.221 254.493 C 48.051 233.319,48.058 233.324,47.727 233.860 " stroke="none" fill="#cecdcd" fill-rule="evenodd"></path><path id="path1" d="M136.990 219.983 C 138.269 222.436,140.101 226.003,141.062 227.911 C 142.023 229.818,143.584 232.717,144.532 234.352 C 146.526 237.792,148.307 241.068,148.307 241.296 C 148.307 241.382,143.758 241.453,138.198 241.453 L 128.088 241.453 128.269 238.398 C 128.468 235.030,127.736 240.435,125.730 257.143 C 125.097 262.411,124.501 266.945,124.404 267.217 C 124.308 267.490,123.845 271.354,123.375 275.805 C 122.905 280.256,122.285 285.533,121.998 287.531 C 121.711 289.529,121.348 292.130,121.193 293.311 C 121.037 294.492,120.837 295.756,120.748 296.119 C 120.567 296.858,121.313 296.606,103.716 301.881 C 97.630 303.706,92.205 305.334,91.660 305.499 C 91.115 305.663,89.405 306.181,87.861 306.648 C 86.317 307.115,79.554 309.142,72.832 311.153 C 66.111 313.163,59.422 315.174,57.969 315.622 C 46.282 319.226,36.493 322.009,36.275 321.791 C 36.004 321.520,35.499 316.852,33.551 296.609 C 32.930 290.157,32.333 284.509,32.226 284.058 C 32.118 283.606,31.506 277.589,30.866 270.685 C 30.225 263.782,29.644 257.614,29.575 256.978 C 29.506 256.342,29.001 251.310,28.454 245.796 C 27.482 236.014,26.832 232.278,27.166 238.394 L 27.332 241.446 13.749 241.532 L 0.165 241.618 0.081 285.962 L -0.002 330.306 200.000 330.306 L 400.002 330.306 399.919 285.962 L 399.835 241.618 354.088 241.453 L 308.340 241.288 310.818 240.516 C 312.180 240.092,313.666 239.613,314.121 239.452 C 315.002 239.139,323.568 236.501,328.489 235.027 C 330.124 234.537,332.799 233.717,334.434 233.206 C 338.554 231.917,357.596 226.141,363.006 224.539 C 367.728 223.141,368.303 222.865,368.270 222.007 C 368.254 221.606,368.180 221.640,367.976 222.142 C 367.759 222.678,366.472 223.171,361.639 224.570 C 358.303 225.536,354.682 226.611,353.592 226.959 C 352.502 227.307,348.340 228.560,344.344 229.743 C 340.347 230.927,335.665 232.322,333.939 232.844 C 332.213 233.365,327.234 234.849,322.874 236.141 C 318.514 237.434,313.980 238.789,312.799 239.152 C 311.618 239.516,307.977 240.620,304.707 241.606 C 301.437 242.591,298.315 243.547,297.770 243.730 C 297.225 243.912,292.395 245.351,287.036 246.927 C 281.676 248.503,276.177 250.139,274.814 250.563 C 248.610 258.719,250.125 258.564,249.257 253.179 C 248.628 249.275,248.226 247.097,247.534 243.848 L 247.023 241.453 239.201 241.458 C 230.448 241.464,230.428 241.468,230.896 243.162 C 231.089 243.862,231.105 244.662,230.935 245.122 C 230.768 245.575,230.778 246.370,230.961 247.031 C 231.133 247.654,231.201 248.623,231.112 249.185 C 231.023 249.747,231.080 251.841,231.240 253.840 C 231.400 255.849,231.407 259.614,231.256 262.263 L 230.983 267.052 230.866 263.419 C 230.802 261.420,230.728 258.819,230.702 257.638 C 230.577 251.997,230.134 245.872,229.823 245.498 C 229.631 245.267,229.565 244.537,229.675 243.860 C 230.100 241.239,233.627 241.453,190.069 241.453 L 151.340 241.453 149.888 239.224 C 147.012 234.807,144.352 230.275,140.921 223.947 C 136.841 216.421,136.157 215.313,138.272 219.653 C 140.430 224.085,145.027 232.654,147.273 236.434 C 148.320 238.196,150.049 241.123,151.115 242.940 C 167.851 271.447,192.834 298.048,204.236 299.502 C 204.995 299.599,206.061 299.905,206.606 300.183 C 207.151 300.461,208.043 300.797,208.588 300.930 C 209.493 301.150,209.508 301.174,208.753 301.201 C 208.299 301.218,207.198 301.010,206.306 300.740 C 205.414 300.469,204.237 300.248,203.689 300.248 C 203.142 300.248,202.460 300.040,202.173 299.787 C 201.886 299.534,200.314 298.622,198.679 297.762 C 181.517 288.728,159.213 260.809,139.052 223.121 C 137.012 219.306,135.190 216.036,135.004 215.855 C 134.818 215.673,135.712 217.531,136.990 219.983 M222.956 295.717 C 222.956 296.241,221.014 297.431,220.704 297.097 C 220.580 296.963,220.663 296.789,220.887 296.708 C 221.112 296.628,221.632 296.282,222.043 295.939 C 222.945 295.186,222.956 295.184,222.956 295.717 " stroke="none" fill="#645fc9" fill-rule="evenodd"></path><path id="path2" d="M0.039 67.465 C 0.061 104.571,0.192 135.376,0.330 135.921 L 0.582 136.912 0.622 136.003 L 0.661 135.095 24.855 135.093 L 49.050 135.092 50.009 130.882 C 53.456 115.752,55.554 108.829,59.946 98.101 C 61.290 94.818,65.735 85.605,67.357 82.742 C 68.716 80.341,68.812 80.713,67.485 83.237 C 62.096 93.483,57.563 105.247,54.356 117.304 C 53.641 119.993,51.206 133.396,51.200 134.682 C 51.198 135.000,52.840 135.095,58.314 135.095 L 65.430 135.095 65.236 125.929 C 65.068 118.013,64.835 112.100,64.208 99.917 C 63.854 93.035,63.886 92.007,64.458 91.896 C 64.757 91.837,71.723 95.150,79.936 99.258 C 88.150 103.366,94.936 106.660,95.017 106.580 C 95.097 106.499,94.851 105.190,94.469 103.671 C 92.090 94.197,89.205 73.798,88.472 61.272 C 87.005 36.167,92.019 18.193,101.899 13.136 C 104.240 11.938,108.301 11.140,109.992 11.546 C 111.110 11.814,111.092 11.824,109.459 11.857 C 92.666 12.193,86.154 35.153,91.181 76.295 C 91.725 80.749,92.239 84.616,92.323 84.889 C 92.407 85.161,93.145 89.026,93.963 93.476 C 95.306 100.785,96.815 107.494,97.202 107.882 C 97.707 108.387,131.229 124.855,131.752 124.855 C 132.106 124.855,133.783 124.322,135.480 123.670 C 144.474 120.211,176.078 109.701,186.038 106.856 C 187.080 106.558,188.001 106.203,188.086 106.066 C 188.237 105.821,179.839 88.837,177.083 83.815 C 176.311 82.407,175.744 81.255,175.824 81.255 C 176.111 81.255,181.073 90.261,184.686 97.338 C 186.709 101.300,188.557 104.857,188.794 105.242 C 189.223 105.940,189.241 105.937,197.750 103.523 C 202.439 102.193,209.323 100.306,213.047 99.331 L 219.818 97.558 219.851 95.435 C 219.877 93.765,220.839 89.961,224.357 77.622 C 233.137 46.828,236.772 33.836,236.993 32.454 C 237.116 31.683,237.360 30.963,237.536 30.855 C 237.790 30.698,247.463 34.907,255.491 38.666 C 258.387 40.023,275.654 47.808,281.090 50.209 C 284.269 51.614,288.559 53.533,290.623 54.475 C 294.982 56.464,295.230 56.429,293.327 54.089 C 292.258 52.775,292.506 52.962,294.348 54.859 C 296.349 56.922,297.229 57.559,299.321 58.461 C 301.394 59.356,301.936 59.746,302.265 60.580 C 302.487 61.142,305.746 67.845,309.506 75.475 C 317.645 91.990,318.746 94.279,318.740 94.667 C 318.736 94.950,321.471 100.677,323.919 105.509 L 325.078 107.798 324.364 108.337 L 323.650 108.876 324.520 112.489 C 324.999 114.476,325.820 117.886,326.346 120.066 C 327.204 123.627,327.919 127.540,328.490 131.792 C 328.600 132.609,328.768 133.687,328.863 134.187 L 329.037 135.095 364.188 135.095 L 399.339 135.095 399.378 136.003 L 399.418 136.912 399.670 135.921 C 399.808 135.376,399.939 104.571,399.961 67.465 L 400.000 0.000 200.000 0.000 L 0.000 0.000 0.039 67.465 M130.801 21.470 C 130.801 21.652,130.578 21.800,130.306 21.800 C 130.033 21.800,129.810 21.652,129.810 21.470 C 129.810 21.288,130.033 21.140,130.306 21.140 C 130.578 21.140,130.801 21.288,130.801 21.470 M175.371 80.099 C 175.371 80.281,175.153 80.141,174.886 79.788 C 174.620 79.436,174.401 78.998,174.401 78.817 C 174.401 78.635,174.620 78.775,174.886 79.128 C 175.153 79.480,175.371 79.917,175.371 80.099 M211.561 101.249 C 202.358 103.702,190.806 107.010,190.257 107.349 C 189.998 107.509,190.680 109.296,192.415 112.999 C 193.811 115.977,196.102 120.941,197.507 124.030 C 198.912 127.118,200.629 130.871,201.323 132.370 L 202.584 135.095 213.215 135.095 L 223.847 135.095 224.399 136.334 C 224.703 137.015,225.079 138.464,225.235 139.554 C 225.391 140.644,225.536 141.090,225.559 140.545 C 225.581 140.000,225.368 137.845,225.084 135.756 C 224.801 133.666,224.213 129.207,223.779 125.846 C 220.310 99.021,220.315 99.056,219.716 99.114 C 219.591 99.126,215.921 100.087,211.561 101.249 M186.292 108.395 C 172.145 112.705,145.884 121.602,137.462 124.938 L 134.049 126.290 137.348 127.847 C 141.245 129.687,141.537 130.073,141.237 133.001 L 141.022 135.095 170.594 135.095 C 186.858 135.095,200.165 135.008,200.165 134.903 C 200.165 132.945,189.466 107.610,188.681 107.710 C 188.548 107.727,187.473 108.036,186.292 108.395 M317.424 111.026 C 315.153 111.926,310.842 113.603,307.845 114.752 C 297.367 118.767,293.468 120.301,292.311 120.859 C 289.971 121.989,285.054 124.945,285.054 125.222 C 285.054 125.553,285.484 125.744,293.642 129.040 C 297.002 130.398,300.198 131.702,300.743 131.936 C 301.288 132.171,302.329 132.590,303.055 132.868 C 303.782 133.147,305.287 133.761,306.400 134.235 C 308.417 135.092,308.451 135.095,317.593 135.095 L 326.763 135.095 326.534 132.865 C 326.407 131.639,326.162 129.020,325.988 127.046 C 325.814 125.071,325.598 123.337,325.509 123.192 C 325.420 123.048,324.750 120.130,324.021 116.708 C 322.453 109.353,322.445 109.323,321.943 109.360 C 321.728 109.376,319.694 110.126,317.424 111.026 M252.207 136.499 C 251.526 138.743,251.198 141.856,251.837 140.014 C 251.925 139.761,252.286 138.774,252.639 137.820 C 253.168 136.391,253.197 136.086,252.807 136.086 C 252.546 136.086,252.276 136.272,252.207 136.499 M225.675 142.692 C 225.675 143.328,225.743 143.588,225.826 143.270 C 225.909 142.952,225.909 142.432,225.826 142.114 C 225.743 141.796,225.675 142.056,225.675 142.692 M250.425 143.389 C 249.778 145.116,249.749 145.746,250.378 144.378 C 250.745 143.579,250.973 142.853,250.883 142.763 C 250.794 142.674,250.587 142.955,250.425 143.389 M257.068 165.813 C 257.068 166.631,257.132 166.965,257.211 166.557 C 257.290 166.148,257.290 165.479,257.211 165.070 C 257.132 164.661,257.068 164.996,257.068 165.813 M256.098 183.320 C 256.098 184.682,256.156 185.239,256.227 184.558 C 256.299 183.877,256.299 182.762,256.227 182.081 C 256.156 181.400,256.098 181.957,256.098 183.320 M255.592 186.953 C 255.306 187.638,253.549 218.646,253.783 218.881 C 253.888 218.985,254.044 218.719,254.131 218.288 C 255.219 212.917,256.535 184.701,255.592 186.953 M253.428 221.140 C 253.431 221.866,253.499 222.125,253.578 221.714 C 253.657 221.303,253.654 220.708,253.571 220.393 C 253.489 220.077,253.424 220.413,253.428 221.140 " stroke="none" fill="#2e2c5a" fill-rule="evenodd"></path><path id="path3" d="M237.820 31.598 C 237.820 31.758,238.948 36.344,240.326 41.791 C 242.642 50.943,242.804 51.805,242.472 53.179 C 241.836 55.807,239.765 68.777,239.952 68.964 C 240.051 69.063,240.133 69.008,240.133 68.841 C 240.139 67.647,242.795 53.026,243.054 52.768 C 243.329 52.493,255.080 60.146,264.385 66.660 C 266.823 68.367,282.544 79.042,289.724 83.867 L 292.578 85.784 297.982 86.022 C 303.055 86.246,308.265 87.005,310.752 87.883 C 312.164 88.382,311.867 88.700,310.427 88.231 C 307.288 87.209,294.963 86.357,294.963 87.162 C 294.963 87.322,300.641 91.298,307.582 95.998 C 325.778 108.318,324.628 107.330,322.040 108.406 C 321.127 108.785,320.435 109.150,320.502 109.216 C 320.728 109.442,324.030 107.924,324.030 107.595 C 324.030 107.415,323.593 106.432,323.058 105.409 C 320.969 101.413,318.653 96.551,317.931 94.647 C 317.514 93.549,315.200 88.637,312.789 83.732 C 310.377 78.827,306.798 71.471,304.834 67.384 C 301.437 60.314,301.204 59.929,300.013 59.417 C 299.325 59.121,297.647 58.359,296.284 57.724 C 294.922 57.089,292.543 56.025,290.999 55.360 C 289.455 54.694,287.597 53.867,286.870 53.521 C 285.369 52.806,274.435 47.860,263.914 43.135 C 260.008 41.381,256.069 39.588,255.161 39.149 C 253.713 38.451,239.325 31.932,238.233 31.479 C 238.006 31.385,237.820 31.439,237.820 31.598 M238.184 77.443 C 237.580 81.199,237.027 84.596,236.954 84.993 C 236.848 85.573,236.884 85.552,237.141 84.889 C 237.548 83.837,239.560 71.447,239.402 70.971 C 239.336 70.775,238.789 73.687,238.184 77.443 M235.688 91.412 C 235.564 92.275,235.334 93.501,235.176 94.137 C 235.017 94.773,234.716 96.631,234.507 98.266 C 234.297 99.901,234.061 101.610,233.983 102.064 C 233.861 102.775,233.882 102.798,234.132 102.230 C 234.291 101.866,234.609 100.083,234.837 98.266 C 235.065 96.449,235.376 94.517,235.527 93.972 C 235.911 92.590,236.278 89.843,236.078 89.843 C 235.987 89.843,235.812 90.549,235.688 91.412 M64.534 94.715 C 64.734 97.177,66.892 142.629,67.220 151.280 C 67.334 154.277,67.563 158.885,67.728 161.519 C 67.894 164.154,68.383 173.369,68.816 181.998 C 69.249 190.628,69.634 197.762,69.670 197.853 C 69.854 198.310,70.330 196.377,70.186 195.761 C 70.093 195.368,70.460 191.329,71.000 186.788 C 71.540 182.246,72.654 172.882,73.476 165.979 C 74.297 159.075,75.060 153.036,75.170 152.557 C 75.506 151.110,74.832 151.183,71.202 152.983 C 69.290 153.931,67.625 154.605,67.501 154.482 C 67.050 154.031,68.444 153.012,71.835 151.314 C 73.742 150.359,75.376 149.459,75.466 149.313 C 76.138 148.225,75.996 143.325,75.197 140.050 C 74.732 138.142,73.890 134.575,73.326 132.122 C 71.843 125.668,70.434 119.643,69.348 115.111 C 66.375 102.699,64.741 95.119,64.740 93.735 C 64.740 92.301,65.402 92.851,69.096 97.347 C 70.969 99.627,75.077 104.534,78.225 108.251 C 81.372 111.968,84.995 116.296,86.276 117.868 C 92.052 124.959,102.547 137.077,102.912 137.077 C 103.134 137.077,103.400 136.856,103.503 136.587 C 103.606 136.317,103.897 136.176,104.149 136.273 C 104.570 136.434,106.279 135.782,117.754 131.083 C 125.012 128.110,130.515 126.136,131.240 126.246 C 131.725 126.319,131.155 126.658,129.480 127.291 C 126.171 128.543,114.137 133.325,109.030 135.416 C 106.776 136.340,104.769 137.297,104.571 137.544 C 104.373 137.790,103.988 138.073,103.716 138.173 C 103.335 138.312,103.381 138.403,103.915 138.567 C 104.297 138.684,104.847 139.280,105.139 139.891 C 105.430 140.502,108.091 143.851,111.051 147.332 C 114.011 150.814,116.723 154.056,117.078 154.536 C 117.433 155.016,119.291 157.257,121.207 159.517 C 131.302 171.421,134.765 175.595,134.765 175.858 C 134.765 175.956,134.207 176.331,133.526 176.691 C 132.051 177.470,132.295 177.596,133.846 176.856 L 134.933 176.338 136.195 164.552 C 136.889 158.070,137.584 152.246,137.739 151.610 C 138.189 149.766,140.144 131.193,139.943 130.669 C 139.843 130.408,138.256 129.487,136.417 128.622 C 134.578 127.757,132.928 126.778,132.751 126.448 C 132.574 126.117,132.084 125.846,131.661 125.846 C 131.238 125.846,125.261 123.018,118.378 119.561 C 100.133 110.398,97.856 109.204,96.857 108.273 C 96.360 107.810,95.759 107.503,95.522 107.590 C 95.113 107.739,68.928 94.888,66.315 93.255 C 64.452 92.091,64.329 92.191,64.534 94.715 M233.196 105.164 C 233.196 105.394,231.334 116.933,231.031 118.580 L 230.880 119.405 231.204 118.580 C 231.639 117.468,233.592 105.324,233.371 105.102 C 233.275 105.006,233.196 105.033,233.196 105.164 M313.625 111.625 C 312.898 111.969,312.453 112.251,312.634 112.253 C 313.085 112.256,315.691 111.036,315.277 111.016 C 315.095 111.007,314.352 111.281,313.625 111.625 M308.010 113.802 C 307.465 114.052,307.242 114.257,307.514 114.259 C 307.787 114.261,308.382 114.050,308.836 113.790 C 309.880 113.193,309.322 113.201,308.010 113.802 M303.881 115.311 C 303.427 115.488,301.674 116.166,299.985 116.816 C 298.296 117.467,296.968 118.052,297.032 118.117 C 297.148 118.233,304.906 115.338,305.175 115.079 C 305.408 114.854,304.749 114.972,303.881 115.311 M261.327 116.883 C 261.387 117.039,266.342 122.414,272.337 128.827 C 278.332 135.240,283.448 140.798,283.707 141.177 C 283.965 141.556,285.098 142.832,286.225 144.013 C 287.352 145.194,293.518 151.808,299.927 158.712 C 306.337 165.615,312.635 172.383,313.924 173.752 C 319.440 179.610,320.306 180.565,320.989 181.548 C 321.385 182.118,323.680 184.271,326.090 186.332 C 328.499 188.394,333.222 192.461,336.584 195.371 C 339.946 198.280,343.439 201.255,344.346 201.982 C 345.709 203.074,357.814 213.449,365.400 220.027 C 367.276 221.653,367.692 222.412,366.887 222.737 C 366.563 222.868,366.566 222.910,366.897 222.930 C 367.788 222.985,367.637 221.914,366.383 219.263 C 365.667 217.752,362.229 210.198,358.743 202.477 C 355.256 194.756,352.121 187.845,351.777 187.118 C 351.432 186.391,347.570 177.845,343.194 168.126 C 332.577 144.546,334.016 147.121,330.636 145.643 C 329.092 144.968,326.639 143.940,325.186 143.358 C 323.732 142.777,322.264 142.152,321.922 141.971 C 321.580 141.789,320.762 141.451,320.105 141.218 C 319.448 140.985,315.566 139.384,311.478 137.660 C 307.391 135.935,301.296 133.373,297.936 131.965 C 294.575 130.558,289.967 128.617,287.696 127.653 C 285.425 126.689,282.973 125.655,282.246 125.356 C 281.008 124.846,280.964 124.784,281.548 124.352 C 282.111 123.935,282.059 123.910,281.002 124.081 C 280.059 124.234,278.924 123.886,275.095 122.270 C 261.461 116.516,261.136 116.388,261.327 116.883 M258.826 118.471 C 258.537 119.319,258.360 120.072,258.432 120.144 C 258.504 120.216,258.764 119.708,259.009 119.015 L 259.455 117.754 259.646 119.901 L 259.836 122.048 259.893 119.488 C 259.958 116.576,259.591 116.226,258.826 118.471 M291.495 120.213 C 290.768 120.557,290.267 120.850,290.381 120.865 C 290.702 120.906,292.981 119.913,292.981 119.731 C 292.981 119.510,292.980 119.510,291.495 120.213 M230.553 120.323 C 230.553 120.434,229.964 124.056,229.244 128.373 C 228.525 132.689,227.990 136.275,228.057 136.342 C 228.224 136.509,228.390 135.634,229.728 127.531 C 230.370 123.643,230.818 120.386,230.724 120.292 C 230.630 120.198,230.553 120.212,230.553 120.323 M284.949 122.589 C 283.529 123.145,282.422 123.655,282.489 123.722 C 282.607 123.840,287.720 121.948,287.999 121.683 C 288.344 121.355,287.329 121.657,284.949 122.589 M258.809 139.764 C 258.474 149.478,258.269 157.630,258.352 157.880 C 258.435 158.130,258.778 150.387,259.113 140.674 C 259.447 130.960,259.653 122.808,259.570 122.558 C 259.486 122.307,259.144 130.050,258.809 139.764 M256.207 126.232 C 255.561 128.280,255.088 130.013,255.157 130.081 C 255.226 130.150,255.812 128.532,256.460 126.485 C 257.108 124.438,257.581 122.706,257.510 122.636 C 257.440 122.565,256.853 124.183,256.207 126.232 M253.764 133.267 C 253.395 134.267,253.211 135.012,253.353 134.924 C 253.653 134.739,254.721 131.737,254.548 131.565 C 254.485 131.501,254.132 132.267,253.764 133.267 M245.986 137.486 C 244.574 138.039,243.475 138.547,243.544 138.617 C 243.691 138.764,249.050 136.755,249.050 136.552 C 249.050 136.323,248.649 136.445,245.986 137.486 M226.969 141.016 C 226.481 143.970,226.490 145.004,227.001 145.004 C 227.559 145.004,234.562 142.297,234.406 142.141 C 234.338 142.073,232.694 142.633,230.751 143.386 C 226.579 145.003,226.696 145.060,227.215 141.666 C 227.441 140.196,227.563 138.931,227.487 138.855 C 227.411 138.779,227.178 139.751,226.969 141.016 M257.832 167.052 C 257.710 171.730,257.541 176.003,257.457 176.548 C 257.337 177.330,257.367 177.399,257.597 176.874 C 257.903 176.178,258.500 158.547,258.218 158.547 C 258.128 158.547,257.955 162.374,257.832 167.052 M123.204 180.726 C 121.478 181.450,119.583 182.187,118.993 182.366 C 118.402 182.544,117.919 182.748,117.919 182.819 C 117.919 183.106,120.431 182.540,120.892 182.150 C 121.164 181.919,122.614 181.260,124.112 180.684 C 125.611 180.109,126.837 179.575,126.837 179.497 C 126.837 179.241,126.375 179.398,123.204 180.726 M120.742 183.485 C 121.369 185.392,121.697 186.188,122.100 186.779 C 122.952 188.030,122.537 186.503,121.519 184.641 C 120.972 183.642,120.623 183.121,120.742 183.485 M106.765 187.031 C 104.899 187.768,103.429 188.428,103.498 188.497 C 103.630 188.629,110.298 186.097,110.592 185.803 C 110.949 185.445,110.048 185.734,106.765 187.031 M256.859 186.362 C 256.748 186.778,256.682 188.976,256.713 191.247 L 256.770 195.376 256.963 190.586 C 257.171 185.425,257.166 185.218,256.859 186.362 M122.543 187.713 C 122.543 188.419,128.869 202.369,133.957 212.882 C 153.477 253.217,179.739 287.716,198.514 297.688 C 203.069 300.108,203.217 300.171,205.285 300.587 C 208.056 301.144,209.998 301.341,208.588 300.923 C 208.043 300.761,206.928 300.407,206.111 300.136 C 205.293 299.865,203.881 299.414,202.973 299.133 C 189.459 294.951,167.533 270.827,149.648 240.462 C 147.776 237.283,145.836 234.013,145.338 233.196 C 140.993 226.063,129.100 202.345,124.479 191.594 C 122.945 188.027,122.543 187.221,122.543 187.713 M95.871 191.257 C 94.765 191.702,94.972 191.928,96.119 191.528 C 96.664 191.338,97.110 191.123,97.110 191.049 C 97.110 190.853,96.708 190.921,95.871 191.257 M91.403 192.978 C 89.991 193.530,88.891 194.038,88.960 194.108 C 89.029 194.177,90.408 193.719,92.024 193.091 C 93.641 192.463,94.740 191.954,94.467 191.961 C 94.195 191.968,92.816 192.425,91.403 192.978 M87.036 194.727 C 86.210 195.125,86.182 195.170,86.870 195.002 C 87.806 194.773,88.858 194.237,88.357 194.245 C 88.175 194.247,87.581 194.464,87.036 194.727 M83.733 195.916 C 81.933 196.645,81.260 197.095,82.575 196.690 C 83.789 196.316,86.098 195.258,85.714 195.252 C 85.533 195.249,84.641 195.548,83.733 195.916 M256.204 201.899 C 256.085 205.396,255.765 210.190,255.495 212.552 C 255.224 214.913,255.020 217.291,255.041 217.836 C 255.062 218.382,255.350 216.524,255.681 213.708 C 256.263 208.747,256.922 195.541,256.587 195.541 C 256.496 195.541,256.324 198.402,256.204 201.899 M78.448 198.030 C 77.903 198.280,77.680 198.485,77.952 198.487 C 78.225 198.489,78.819 198.278,79.273 198.018 C 80.318 197.421,79.760 197.429,78.448 198.030 M75.805 199.021 C 75.260 199.271,75.037 199.476,75.310 199.478 C 75.582 199.480,76.177 199.269,76.631 199.009 C 77.675 198.412,77.117 198.420,75.805 199.021 M69.409 200.423 C 69.349 201.433,70.032 201.634,71.385 201.005 C 71.999 200.719,72.228 200.563,71.893 200.657 C 69.826 201.239,69.751 201.232,69.601 200.442 L 69.454 199.670 69.409 200.423 M24.959 206.524 C 25.064 207.477,25.511 212.048,25.952 216.680 C 26.393 221.313,27.487 232.684,28.383 241.949 C 29.279 251.214,30.469 263.551,31.029 269.364 C 31.588 275.178,32.421 283.799,32.880 288.522 C 33.339 293.245,34.222 302.386,34.841 308.836 C 35.461 315.285,35.990 320.636,36.018 320.727 C 36.045 320.818,36.562 316.804,37.167 311.808 C 37.771 306.813,38.424 301.982,38.618 301.073 C 38.812 300.165,39.573 294.517,40.311 288.522 C 42.360 271.866,43.505 262.780,44.061 258.790 C 44.339 256.794,45.155 250.479,45.875 244.756 C 47.152 234.600,47.394 233.196,47.864 233.196 C 48.231 233.196,62.701 245.688,72.337 254.324 C 73.881 255.708,76.036 257.577,77.126 258.478 C 78.216 259.378,81.474 262.196,84.366 264.740 C 93.982 273.197,101.653 279.907,104.434 282.291 C 112.368 289.093,120.061 296.106,120.020 296.499 C 119.995 296.744,120.074 296.945,120.196 296.945 C 120.318 296.945,120.767 293.637,121.195 289.595 C 121.623 285.553,122.331 279.273,122.768 275.640 C 127.387 237.297,129.298 220.353,129.036 220.090 C 128.812 219.867,125.209 220.412,106.689 223.472 C 101.693 224.297,93.592 225.632,88.687 226.439 C 83.782 227.246,75.830 228.563,71.016 229.367 C 52.547 232.449,50.006 232.849,48.845 232.857 C 47.607 232.866,45.230 230.194,36.829 219.348 C 31.917 213.005,25.253 204.789,25.022 204.789 C 24.882 204.789,24.853 205.570,24.959 206.524 M254.719 220.149 C 254.685 220.875,254.580 221.841,254.487 222.296 L 254.317 223.121 254.672 222.307 C 254.867 221.860,254.972 220.894,254.904 220.160 L 254.781 218.827 254.719 220.149 M253.883 225.959 C 253.769 226.533,253.693 227.541,253.717 228.200 C 253.745 229.009,253.848 228.706,254.034 227.265 C 254.326 225.006,254.234 224.206,253.883 225.959 M356.895 225.599 C 354.702 226.408,355.384 226.417,357.886 225.612 C 358.976 225.261,359.571 224.977,359.207 224.981 C 358.844 224.986,357.803 225.264,356.895 225.599 M353.262 226.743 C 351.986 227.327,352.579 227.336,354.088 226.755 C 354.723 226.510,355.021 226.305,354.748 226.299 C 354.476 226.294,353.807 226.493,353.262 226.743 M348.637 228.081 C 345.548 229.101,346.332 229.113,349.647 228.098 C 351.090 227.656,351.974 227.299,351.610 227.306 C 351.247 227.313,349.909 227.662,348.637 228.081 M252.690 237.166 C 252.269 241.347,251.994 244.837,252.078 244.921 C 252.162 245.005,252.574 241.652,252.995 237.470 C 253.415 233.288,253.690 229.798,253.607 229.715 C 253.523 229.631,253.111 232.984,252.690 237.166 M340.545 230.553 C 339.865 230.771,339.836 230.823,340.380 230.846 C 340.743 230.861,341.263 230.729,341.536 230.553 C 342.115 230.179,341.713 230.179,340.545 230.553 M327.828 234.340 C 326.526 234.936,326.820 234.947,328.654 234.369 C 329.472 234.111,329.843 233.897,329.480 233.893 C 329.116 233.889,328.373 234.090,327.828 234.340 M323.534 235.661 C 322.259 236.245,322.852 236.254,324.360 235.673 C 324.996 235.428,325.293 235.223,325.021 235.218 C 324.748 235.212,324.079 235.412,323.534 235.661 M317.919 237.321 C 313.557 238.763,314.283 238.774,318.910 237.335 C 320.908 236.714,322.246 236.211,321.883 236.217 C 321.519 236.223,319.736 236.720,317.919 237.321 M311.808 239.184 C 310.738 239.559,310.418 239.755,311.030 239.661 C 312.050 239.505,314.603 238.528,313.955 238.541 C 313.774 238.545,312.808 238.834,311.808 239.184 M297.275 243.600 C 296.639 243.845,296.342 244.050,296.614 244.056 C 296.887 244.061,297.556 243.862,298.101 243.612 C 299.376 243.028,298.783 243.020,297.275 243.600 M251.746 246.573 C 251.712 247.300,251.607 248.266,251.514 248.720 L 251.344 249.546 251.699 248.732 C 251.894 248.284,251.999 247.318,251.931 246.585 L 251.808 245.252 251.746 246.573 M287.696 246.399 C 286.152 246.911,285.037 247.343,285.219 247.359 C 285.400 247.375,286.887 246.959,288.522 246.434 C 290.157 245.908,291.272 245.476,290.999 245.473 C 290.727 245.471,289.240 245.887,287.696 246.399 M280.429 248.570 C 278.522 249.175,277.184 249.678,277.457 249.688 C 277.729 249.697,279.513 249.200,281.420 248.584 C 283.328 247.968,284.666 247.465,284.393 247.466 C 284.121 247.467,282.337 247.964,280.429 248.570 M272.998 250.879 C 271.689 251.332,271.688 251.335,272.832 251.146 C 273.468 251.042,274.211 250.829,274.484 250.674 C 275.211 250.260,274.509 250.357,272.998 250.879 M250.910 252.601 C 250.167 257.702,250.281 258.105,252.260 257.350 C 253.097 257.031,253.065 257.017,251.904 257.197 L 250.628 257.395 250.844 255.618 C 250.963 254.640,251.141 253.282,251.240 252.601 C 251.339 251.920,251.346 251.363,251.255 251.363 C 251.165 251.363,251.009 251.920,250.910 252.601 M255.822 255.987 C 255.405 256.166,255.344 256.271,255.656 256.271 C 255.929 256.271,256.449 256.143,256.813 255.987 C 257.229 255.808,257.290 255.703,256.978 255.703 C 256.705 255.703,256.185 255.831,255.822 255.987 M114.946 298.266 C 114.266 298.484,114.237 298.535,114.781 298.558 C 115.145 298.574,115.665 298.442,115.937 298.266 C 116.516 297.892,116.114 297.892,114.946 298.266 M93.311 304.716 C 92.585 304.956,92.287 305.152,92.651 305.152 C 93.014 305.152,93.832 304.952,94.467 304.707 C 95.950 304.136,95.050 304.143,93.311 304.716 M85.219 307.184 C 84.539 307.402,84.509 307.454,85.054 307.476 C 85.417 307.492,85.937 307.360,86.210 307.184 C 86.788 306.810,86.387 306.810,85.219 307.184 " stroke="none" fill="#8c8c8c" fill-rule="evenodd"></path><path id="path4" d="M208.753 101.734 C 208.096 102.158,208.922 102.158,209.909 101.734 L 210.570 101.450 209.909 101.432 C 209.546 101.422,209.026 101.558,208.753 101.734 M206.936 102.093 C 203.420 103.127,191.611 106.469,190.994 106.604 C 190.583 106.694,190.150 106.924,190.032 107.115 C 189.895 107.335,190.035 107.378,190.416 107.232 C 191.606 106.775,205.646 102.779,206.854 102.553 C 207.535 102.425,208.092 102.189,208.092 102.028 C 208.092 101.866,208.055 101.749,208.010 101.768 C 207.964 101.786,207.481 101.933,206.936 102.093 M195.256 104.158 C 192.102 105.082,189.666 105.886,189.843 105.946 C 190.183 106.059,201.464 102.858,201.757 102.565 C 202.110 102.212,200.826 102.526,195.256 104.158 M185.797 106.901 C 172.021 111.043,144.244 120.300,135.480 123.670 C 131.432 125.226,132.207 125.396,123.496 121.038 C 119.299 118.938,115.819 117.267,115.761 117.324 C 115.704 117.381,119.282 119.272,123.713 121.526 L 131.769 125.623 136.653 123.762 C 141.812 121.797,159.856 115.476,164.327 114.068 C 165.780 113.611,170.611 112.075,175.062 110.656 C 179.513 109.236,184.121 107.815,185.301 107.498 C 186.482 107.180,187.590 106.794,187.762 106.640 C 188.195 106.252,187.765 106.309,185.797 106.901 M324.370 107.229 C 324.360 107.931,323.116 109.000,322.307 109.002 C 322.074 109.002,320.099 109.692,317.919 110.534 C 315.739 111.376,313.064 112.399,311.974 112.807 C 310.884 113.215,306.796 114.774,302.890 116.270 C 298.984 117.767,295.085 119.256,294.226 119.581 C 292.733 120.143,290.339 121.468,290.339 121.731 C 290.339 121.799,291.045 121.503,291.908 121.072 C 293.577 120.238,293.825 120.141,318.040 110.822 C 322.832 108.977,322.326 108.647,323.516 114.396 C 324.012 116.788,324.708 119.934,325.064 121.387 C 325.420 122.841,325.844 125.516,326.008 127.333 C 326.171 129.149,326.407 131.639,326.534 132.865 L 326.763 135.095 317.593 135.095 C 308.451 135.095,308.417 135.092,306.400 134.235 C 305.287 133.761,303.782 133.147,303.055 132.868 C 302.329 132.590,301.288 132.171,300.743 131.936 C 300.198 131.702,297.002 130.398,293.642 129.040 C 284.868 125.495,284.972 125.545,285.173 125.021 C 285.291 124.713,285.186 124.622,284.855 124.749 C 283.982 125.084,284.516 125.879,286.045 126.516 C 286.862 126.857,290.950 128.576,295.128 130.335 C 299.306 132.094,304.286 134.169,306.193 134.945 C 308.101 135.721,312.263 137.464,315.442 138.819 C 318.621 140.175,322.857 141.922,324.855 142.703 C 326.854 143.484,329.717 144.698,331.217 145.400 L 333.946 146.678 335.124 149.227 C 335.772 150.628,336.455 152.059,336.642 152.405 C 336.829 152.751,337.384 154.014,337.875 155.212 C 338.841 157.563,357.718 199.142,359.571 202.997 C 360.188 204.283,360.694 205.449,360.694 205.590 C 360.694 205.730,361.305 207.131,362.053 208.703 C 362.801 210.275,363.773 212.378,364.212 213.377 C 364.981 215.124,365.489 216.225,367.463 220.428 C 368.624 222.900,368.643 222.883,363.006 224.545 C 357.857 226.063,338.819 231.834,334.434 233.206 C 332.799 233.717,330.124 234.537,328.489 235.027 C 326.854 235.517,323.212 236.629,320.396 237.498 C 317.581 238.367,314.979 239.163,314.616 239.265 C 314.253 239.368,312.692 239.890,311.148 240.426 L 308.340 241.400 354.170 241.509 L 400.000 241.618 399.961 188.274 C 399.939 158.935,399.808 135.376,399.670 135.921 L 399.418 136.912 399.378 136.003 L 399.339 135.095 364.188 135.095 L 329.037 135.095 328.863 134.187 C 328.768 133.687,328.600 132.609,328.490 131.792 C 327.919 127.540,327.204 123.627,326.346 120.066 C 325.820 117.886,324.999 114.476,324.520 112.489 L 323.650 108.876 324.379 108.326 C 324.974 107.877,325.041 107.661,324.744 107.150 C 324.397 106.552,324.380 106.556,324.370 107.229 M187.283 107.679 C 186.829 107.832,184.451 108.576,181.998 109.332 C 165.894 114.301,143.336 121.990,134.021 125.688 C 132.969 126.106,133.411 126.495,136.926 128.243 C 141.050 130.294,140.917 130.003,140.223 135.441 C 139.935 137.703,138.960 145.797,138.056 153.427 C 137.153 161.057,136.154 169.379,135.837 171.921 L 135.260 176.542 132.783 177.575 C 131.420 178.144,128.262 179.399,125.764 180.366 C 120.748 182.306,120.746 182.308,122.052 184.592 C 122.504 185.383,122.874 186.172,122.874 186.346 C 122.874 189.755,142.357 227.806,150.202 239.719 L 151.344 241.453 190.014 241.453 C 225.534 241.453,228.734 241.498,229.289 242.000 C 229.854 242.511,229.893 242.506,229.898 241.917 C 229.901 241.503,229.988 241.423,230.154 241.684 C 230.320 241.944,230.571 241.974,230.892 241.771 C 231.160 241.602,234.899 241.461,239.201 241.458 L 247.023 241.453 247.534 243.848 C 248.244 247.181,248.641 249.330,249.286 253.319 C 249.707 255.927,249.899 256.551,250.075 255.892 C 250.203 255.413,250.173 254.458,250.007 253.770 C 249.720 252.572,248.434 244.465,245.934 228.076 C 245.296 223.898,244.696 220.182,244.600 219.818 C 244.503 219.455,243.836 215.284,243.118 210.549 C 242.399 205.814,241.735 201.727,241.642 201.466 C 241.550 201.205,241.018 197.795,240.460 193.889 C 239.902 189.983,239.310 186.342,239.144 185.797 C 238.978 185.252,238.746 183.765,238.628 182.494 L 238.414 180.182 243.049 166.144 C 248.653 149.173,250.702 142.716,250.702 142.024 C 250.702 141.737,250.829 141.362,250.985 141.189 C 251.141 141.017,251.460 139.909,251.694 138.728 C 251.928 137.547,252.354 136.310,252.641 135.978 C 253.082 135.468,252.809 135.510,250.858 136.254 C 249.591 136.737,247.366 137.574,245.912 138.115 C 244.459 138.655,241.990 139.608,240.425 140.233 C 228.716 144.905,226.259 145.687,226.259 144.740 C 226.259 144.413,226.129 144.004,225.970 143.832 C 225.811 143.659,225.510 142.140,225.301 140.456 C 225.092 138.771,224.674 136.876,224.373 136.244 L 223.825 135.095 213.204 135.095 L 202.583 135.095 201.250 132.205 C 200.517 130.615,199.357 128.086,198.671 126.583 C 196.935 122.777,196.957 123.337,198.720 127.787 C 200.632 132.614,200.414 132.832,198.348 128.159 C 196.572 124.140,195.885 123.434,197.448 127.233 C 198.420 129.596,200.165 134.523,200.165 134.903 C 200.165 135.008,186.858 135.095,170.594 135.095 L 141.022 135.095 141.237 133.001 C 141.537 130.073,141.245 129.687,137.348 127.847 L 134.049 126.290 137.462 124.938 C 146.110 121.512,177.447 110.922,186.127 108.492 C 187.217 108.186,188.250 107.805,188.423 107.643 C 188.807 107.284,188.423 107.296,187.283 107.679 M64.882 113.472 C 64.976 114.192,65.135 119.352,65.234 124.938 L 65.414 135.095 58.305 135.095 C 53.432 135.095,51.197 134.983,51.197 134.738 C 51.197 134.542,51.652 131.627,52.207 128.261 C 53.381 121.147,53.312 119.975,52.078 126.080 C 50.591 133.436,49.966 134.821,51.202 128.020 C 52.437 121.227,51.904 122.500,50.005 130.882 L 49.050 135.092 24.855 135.093 L 0.661 135.095 0.622 136.003 L 0.582 136.912 0.330 135.921 C 0.192 135.376,0.061 158.935,0.039 188.274 L -0.000 241.618 13.649 241.529 L 27.299 241.439 27.157 237.730 C 27.026 234.279,25.157 213.163,24.466 207.315 C 23.963 203.064,23.225 203.156,38.315 205.585 C 40.041 205.863,43.683 206.393,46.408 206.765 C 49.133 207.136,52.031 207.591,52.849 207.777 C 53.666 207.962,55.153 208.175,56.152 208.249 C 57.151 208.323,58.786 208.539,59.785 208.729 C 60.784 208.919,63.906 209.376,66.722 209.745 C 69.538 210.115,72.510 210.566,73.328 210.747 C 74.145 210.929,78.976 211.665,84.063 212.383 C 95.958 214.062,106.393 215.583,110.157 216.188 C 111.792 216.450,116.977 217.213,121.680 217.884 L 130.230 219.103 130.033 221.649 C 129.925 223.049,129.547 226.257,129.193 228.778 C 128.838 231.298,128.456 235.182,128.344 237.407 L 128.140 241.453 138.224 241.453 C 143.770 241.453,148.307 241.383,148.307 241.296 C 148.307 241.076,146.206 237.210,144.947 235.114 C 141.080 228.673,127.006 199.948,123.536 191.412 C 122.946 189.959,122.196 188.175,121.870 187.448 C 121.544 186.722,120.976 185.421,120.608 184.558 C 119.697 182.425,120.437 182.229,102.890 189.249 C 98.712 190.921,93.435 192.963,91.164 193.786 C 87.558 195.093,82.847 196.896,75.805 199.665 C 74.715 200.093,72.983 200.774,71.956 201.178 C 69.413 202.177,69.031 201.971,69.030 199.597 C 69.028 194.850,67.145 155.557,66.908 155.320 C 66.697 155.109,59.849 158.760,54.666 161.846 C 33.675 174.346,24.277 182.960,24.277 189.702 L 24.277 192.312 25.878 193.761 C 26.759 194.558,27.313 195.211,27.110 195.211 C 26.218 195.211,23.857 192.528,23.441 191.042 C 21.363 183.621,36.501 170.143,62.263 156.477 C 64.624 155.224,66.659 154.100,66.785 153.978 C 67.087 153.685,65.295 112.749,64.966 112.420 C 64.825 112.279,64.787 112.752,64.882 113.472 M112.331 115.730 C 112.671 116.034,114.616 116.928,114.616 116.780 C 114.616 116.590,112.785 115.607,112.430 115.607 C 112.300 115.607,112.256 115.662,112.331 115.730 M287.448 123.239 C 286.495 123.795,285.714 124.326,285.714 124.419 C 285.714 124.602,288.652 122.969,289.166 122.499 C 289.726 121.989,289.217 122.207,287.448 123.239 M284.145 123.429 C 283.010 123.882,282.081 124.388,282.081 124.554 C 282.081 125.157,283.527 124.832,285.261 123.840 C 288.006 122.270,287.509 122.087,284.145 123.429 M210.659 158.278 C 210.455 158.891,209.744 158.992,209.744 158.409 C 209.744 158.121,209.979 157.886,210.267 157.886 C 210.555 157.886,210.731 158.063,210.659 158.278 M229.992 238.593 C 230.085 238.837,230.029 239.245,229.867 239.501 C 229.653 239.840,229.571 239.720,229.567 239.059 C 229.562 238.072,229.724 237.895,229.992 238.593 M230.470 243.058 C 230.356 243.493,230.113 243.736,229.915 243.614 C 229.695 243.478,229.562 243.769,229.562 244.387 C 229.562 244.932,229.711 245.470,229.893 245.582 C 230.074 245.694,230.225 245.592,230.228 245.354 C 230.232 245.007,230.288 245.009,230.515 245.366 C 230.939 246.035,231.252 244.453,230.932 243.257 C 230.681 242.316,230.666 242.309,230.470 243.058 M230.884 247.749 C 230.884 247.941,230.735 248.007,230.553 247.894 C 230.354 247.771,230.233 248.188,230.249 248.948 C 230.263 249.640,230.350 250.020,230.442 249.792 C 230.534 249.563,230.746 249.461,230.912 249.563 C 231.078 249.666,231.214 249.221,231.214 248.574 C 231.214 247.928,231.140 247.399,231.049 247.399 C 230.958 247.399,230.884 247.556,230.884 247.749 M230.630 256.647 C 230.630 257.283,230.698 257.543,230.781 257.225 C 230.864 256.908,230.864 256.387,230.781 256.069 C 230.698 255.751,230.630 256.012,230.630 256.647 " stroke="none" fill="#4c4a9b" fill-rule="evenodd"></path><path id="path5" d="M106.028 11.716 C 89.095 14.845,83.854 45.131,92.165 91.825 C 93.054 96.821,93.996 101.577,94.257 102.395 C 94.801 104.096,94.973 103.809,94.456 102.062 C 94.268 101.428,93.605 97.936,92.982 94.302 C 92.359 90.669,91.690 86.879,91.494 85.879 C 90.706 81.853,89.191 66.817,89.046 61.573 L 88.892 55.987 89.319 62.097 C 90.126 73.639,92.994 92.856,95.148 101.155 C 95.490 102.473,95.701 103.105,95.618 102.560 C 95.340 100.736,92.478 85.391,92.323 84.889 C 92.239 84.616,91.725 80.749,91.181 76.295 C 86.153 35.146,92.650 12.241,109.459 11.852 C 110.919 11.818,111.013 11.779,110.157 11.561 C 108.870 11.233,108.583 11.244,106.028 11.716 M129.810 21.470 C 129.810 21.652,130.033 21.800,130.306 21.800 C 130.578 21.800,130.801 21.652,130.801 21.470 C 130.801 21.288,130.578 21.140,130.306 21.140 C 130.033 21.140,129.810 21.288,129.810 21.470 M237.374 30.969 C 237.289 31.106,237.116 31.812,236.989 32.538 C 236.757 33.873,232.507 49.041,224.357 77.622 C 220.851 89.920,219.877 93.768,219.851 95.424 L 219.818 97.537 217.063 98.289 C 215.548 98.703,214.210 99.146,214.090 99.273 C 213.971 99.400,214.170 99.420,214.533 99.317 C 216.513 98.755,225.037 96.670,228.902 95.801 C 231.354 95.250,233.679 94.726,234.068 94.636 C 235.197 94.376,234.495 97.871,241.462 57.803 L 242.525 51.693 240.300 42.940 C 239.077 38.126,237.919 33.555,237.727 32.783 C 237.202 30.667,237.047 30.623,248.459 35.848 C 254.325 38.533,260.091 41.133,261.272 41.625 C 262.453 42.116,266.837 44.083,271.016 45.995 C 280.437 50.307,287.841 53.639,292.155 55.510 C 300.066 58.942,301.610 59.803,302.136 61.075 C 302.406 61.728,305.121 67.316,308.171 73.493 C 315.533 88.404,318.415 94.390,318.415 94.773 C 318.415 94.947,318.565 95.182,318.749 95.295 C 319.122 95.527,318.035 92.615,317.082 90.834 C 315.928 88.677,302.672 61.608,302.265 60.580 C 301.936 59.746,301.394 59.356,299.321 58.461 C 297.229 57.559,296.349 56.922,294.348 54.859 C 292.506 52.962,292.258 52.775,293.327 54.089 C 295.230 56.429,294.982 56.464,290.623 54.475 C 288.559 53.533,284.269 51.614,281.090 50.209 C 275.654 47.808,258.387 40.023,255.491 38.666 C 251.217 36.664,237.948 30.718,237.757 30.718 C 237.631 30.718,237.459 30.831,237.374 30.969 M88.897 54.005 L 88.588 55.326 88.555 53.647 C 88.537 52.724,88.633 51.855,88.770 51.717 C 89.164 51.316,89.234 52.566,88.897 54.005 M174.401 78.817 C 174.401 78.998,174.620 79.436,174.886 79.788 C 175.153 80.141,175.371 80.281,175.371 80.099 C 175.371 79.917,175.153 79.480,174.886 79.128 C 174.620 78.775,174.401 78.635,174.401 78.817 M68.264 81.173 C 60.923 93.427,54.033 111.931,51.539 126.087 C 50.012 134.758,50.328 134.536,52.189 125.631 C 52.726 123.060,53.377 120.310,53.637 119.520 C 53.896 118.730,54.712 115.929,55.451 113.295 C 58.005 104.190,63.047 91.603,67.457 83.320 C 68.448 81.458,69.046 79.867,68.264 81.173 M178.217 85.962 C 182.210 93.497,188.060 105.486,188.025 106.060 C 188.001 106.448,188.208 106.547,188.808 106.432 C 189.525 106.295,189.568 106.211,189.165 105.739 C 188.912 105.444,186.985 101.832,184.882 97.712 C 181.277 90.652,176.118 81.255,175.846 81.255 C 175.778 81.255,176.845 83.373,178.217 85.962 M63.867 92.325 C 63.761 92.600,63.778 93.900,63.903 95.215 C 64.029 96.530,64.188 98.869,64.257 100.413 C 64.674 109.735,65.005 112.407,64.831 105.037 C 64.734 100.950,64.526 97.261,64.367 96.841 C 63.978 95.807,64.001 92.573,64.399 92.327 C 64.575 92.218,71.409 95.479,79.585 99.574 C 87.761 103.669,94.683 107.019,94.967 107.019 C 95.251 107.019,88.638 103.600,80.271 99.422 C 64.827 91.709,64.206 91.440,63.867 92.325 M231.379 95.951 C 230.471 96.189,227.309 96.952,224.354 97.646 C 220.584 98.531,219.179 98.981,219.647 99.154 C 220.014 99.290,220.319 99.443,220.325 99.494 C 220.331 99.545,220.933 104.121,221.662 109.661 C 222.898 119.048,223.839 126.274,225.082 135.921 C 225.363 138.101,225.688 140.823,225.806 141.970 C 226.116 145.007,226.350 144.314,227.733 136.251 C 228.418 132.254,229.559 125.714,230.268 121.718 C 230.977 117.721,232.225 110.586,233.042 105.863 C 233.858 101.140,234.615 96.866,234.725 96.367 C 234.960 95.295,234.229 95.204,231.379 95.951 M319.132 96.318 C 319.367 97.109,324.164 106.994,324.265 106.894 C 324.373 106.786,323.049 103.723,321.464 100.413 C 320.555 98.515,318.945 95.688,319.132 96.318 M216.515 99.593 L 215.194 100.043 216.515 99.855 C 217.909 99.657,219.307 99.097,218.332 99.127 C 218.059 99.136,217.242 99.345,216.515 99.593 M189.040 107.230 C 188.763 107.343,188.830 107.695,189.271 108.443 C 189.612 109.022,190.551 110.983,191.358 112.799 C 192.164 114.616,193.361 117.254,194.017 118.662 C 195.780 122.444,197.245 125.656,198.683 128.892 C 199.388 130.477,200.020 131.717,200.088 131.649 C 200.427 131.310,190.061 107.015,189.595 107.057 C 189.505 107.065,189.255 107.143,189.040 107.230 M96.963 108.040 C 97.234 108.477,103.084 111.394,103.286 111.192 C 103.376 111.103,101.945 110.285,100.107 109.375 C 98.270 108.465,96.855 107.864,96.963 108.040 M104.170 111.795 C 104.993 112.429,115.297 117.680,115.436 117.536 C 115.496 117.474,112.846 116.050,109.548 114.371 C 106.249 112.691,103.829 111.532,104.170 111.795 M115.937 117.753 C 115.937 117.973,121.262 120.631,121.409 120.485 C 121.474 120.419,120.270 119.742,118.732 118.980 C 117.195 118.217,115.937 117.665,115.937 117.753 M256.519 126.755 C 255.059 131.169,253.628 134.925,253.246 135.343 C 252.874 135.751,252.726 136.086,252.918 136.086 C 253.353 136.086,252.152 139.523,251.269 140.809 C 250.919 141.318,250.710 142.025,250.802 142.380 C 250.895 142.736,250.598 144.029,250.141 145.254 C 241.275 169.047,237.867 181.610,239.144 185.797 C 239.310 186.342,239.902 189.983,240.460 193.889 C 241.018 197.795,241.550 201.205,241.642 201.466 C 241.735 201.727,242.399 205.814,243.118 210.549 C 243.836 215.284,244.503 219.455,244.600 219.818 C 244.763 220.438,245.415 224.626,248.210 243.022 C 249.488 251.433,250.028 254.379,250.361 254.757 C 250.486 254.898,250.903 252.148,251.288 248.646 C 252.825 234.695,255.034 215.326,255.480 211.891 C 255.740 209.893,256.262 200.083,256.640 190.091 C 257.017 180.099,257.464 169.026,257.632 165.483 C 257.800 161.941,258.228 151.908,258.584 143.187 C 258.939 134.467,259.313 125.438,259.414 123.121 C 259.516 120.805,259.490 118.910,259.356 118.910 C 259.223 118.910,257.946 122.440,256.519 126.755 M288.835 121.845 C 288.099 122.179,286.835 122.873,286.027 123.386 C 285.219 123.900,284.083 124.485,283.503 124.687 L 282.448 125.055 283.421 125.422 C 284.155 125.699,284.393 125.694,284.393 125.399 C 284.393 125.184,285.805 124.212,287.531 123.238 C 289.257 122.265,290.669 121.413,290.669 121.345 C 290.669 121.105,290.156 121.245,288.835 121.845 M209.744 158.409 C 209.744 158.992,210.455 158.891,210.659 158.278 C 210.731 158.063,210.555 157.886,210.267 157.886 C 209.979 157.886,209.744 158.121,209.744 158.409 M257.211 166.557 C 257.132 166.965,257.068 166.631,257.068 165.813 C 257.068 164.996,257.132 164.661,257.211 165.070 C 257.290 165.479,257.290 166.148,257.211 166.557 M256.227 184.558 C 256.156 185.239,256.098 184.682,256.098 183.320 C 256.098 181.957,256.156 181.400,256.227 182.081 C 256.299 182.762,256.299 183.877,256.227 184.558 M255.678 198.514 C 255.252 209.328,254.314 219.411,253.783 218.881 C 253.549 218.646,255.306 187.638,255.592 186.953 C 256.003 185.971,256.030 189.591,255.678 198.514 M25.317 204.211 C 25.656 204.765,30.465 210.879,36.331 218.213 C 38.967 221.509,42.606 226.080,44.418 228.370 C 48.132 233.064,47.670 232.847,52.188 232.021 C 53.732 231.738,58.489 230.929,62.758 230.221 C 67.027 229.514,74.608 228.253,79.604 227.419 C 84.600 226.585,90.991 225.534,93.807 225.084 C 96.623 224.633,100.710 223.967,102.890 223.604 C 105.070 223.242,110.867 222.278,115.772 221.463 C 131.225 218.895,130.887 219.159,120.562 217.710 C 116.474 217.136,111.792 216.451,110.157 216.189 C 106.414 215.587,96.026 214.071,84.063 212.383 C 78.976 211.665,74.145 210.929,73.328 210.747 C 72.510 210.566,69.538 210.115,66.722 209.745 C 63.906 209.376,60.784 208.919,59.785 208.729 C 58.786 208.539,57.151 208.323,56.152 208.249 C 55.153 208.175,53.666 207.962,52.849 207.777 C 52.031 207.591,49.133 207.136,46.408 206.765 C 43.683 206.393,40.041 205.863,38.315 205.585 C 27.464 203.838,24.924 203.570,25.317 204.211 M253.578 221.714 C 253.499 222.125,253.431 221.866,253.428 221.140 C 253.424 220.413,253.489 220.077,253.571 220.393 C 253.654 220.708,253.657 221.303,253.578 221.714 " stroke="none" fill="#55555a" fill-rule="evenodd"></path><path id="path6" d="M242.908 52.900 C 242.767 53.129,242.817 53.192,243.034 53.058 C 243.372 52.849,246.259 54.723,259.804 63.939 C 281.716 78.847,291.528 85.499,292.651 86.210 C 293.369 86.664,297.416 89.403,301.644 92.296 C 308.844 97.222,316.420 102.381,319.504 104.456 C 320.243 104.953,321.238 105.734,321.714 106.190 C 322.190 106.646,322.757 107.019,322.974 107.019 C 323.624 107.019,323.421 107.553,322.626 107.937 C 322.217 108.134,322.040 108.306,322.232 108.318 C 322.425 108.330,322.871 108.122,323.223 107.856 C 324.095 107.198,324.416 107.442,308.423 96.587 C 301.020 91.562,294.963 87.321,294.963 87.161 C 294.963 86.357,307.291 87.210,310.427 88.231 C 311.867 88.700,312.164 88.382,310.752 87.883 C 308.265 87.005,303.055 86.246,297.982 86.022 L 292.578 85.784 289.724 83.867 C 282.544 79.042,266.823 68.367,264.385 66.660 C 260.625 64.027,243.481 52.519,243.319 52.519 C 243.223 52.519,243.038 52.690,242.908 52.900 M65.955 93.903 C 69.122 97.888,71.749 101.039,80.906 111.838 C 82.461 113.671,84.178 115.733,84.723 116.419 C 86.577 118.752,91.517 124.525,91.660 124.525 C 91.838 124.525,87.668 119.475,79.108 109.323 C 75.475 105.014,70.959 99.612,69.073 97.317 C 67.188 95.023,65.579 93.146,65.499 93.146 C 65.418 93.146,65.623 93.487,65.955 93.903 M235.254 95.458 C 235.254 96.094,235.322 96.354,235.405 96.036 C 235.488 95.718,235.488 95.198,235.405 94.880 C 235.322 94.562,235.254 94.822,235.254 95.458 M65.531 98.266 C 65.654 99.247,67.515 107.457,69.348 115.111 C 70.434 119.643,71.843 125.668,73.326 132.122 C 73.890 134.575,74.732 138.142,75.197 140.050 C 75.996 143.325,76.138 148.225,75.466 149.313 C 75.376 149.459,73.742 150.359,71.835 151.314 C 68.444 153.012,67.050 154.031,67.501 154.482 C 67.625 154.605,69.303 153.925,71.229 152.969 C 75.253 150.974,75.550 151.027,75.000 153.640 C 74.796 154.613,74.033 160.611,73.305 166.969 C 72.577 173.328,71.617 181.503,71.172 185.136 C 70.251 192.644,69.956 197.274,70.417 196.989 C 70.586 196.885,70.644 196.405,70.547 195.922 C 70.450 195.440,70.815 191.329,71.358 186.788 C 71.901 182.246,73.010 172.956,73.822 166.144 C 74.634 159.331,75.533 151.974,75.821 149.794 C 76.487 144.733,76.352 143.134,74.659 136.086 C 72.955 128.989,72.080 125.242,70.534 118.415 C 69.876 115.508,69.126 112.312,68.867 111.313 C 68.608 110.314,67.875 107.192,67.238 104.377 C 66.602 101.561,65.929 98.811,65.744 98.266 L 65.407 97.275 65.531 98.266 M232.942 109.331 C 232.942 109.967,233.010 110.227,233.093 109.909 C 233.176 109.591,233.176 109.071,233.093 108.753 C 233.010 108.435,232.942 108.695,232.942 109.331 M260.757 116.298 C 260.652 116.468,263.661 119.917,267.443 123.964 C 271.225 128.010,275.434 132.557,276.796 134.068 C 279.219 136.755,282.487 140.295,301.591 160.927 C 306.756 166.506,313.807 174.143,317.258 177.898 C 320.710 181.654,324.053 185.116,324.688 185.592 C 325.322 186.068,328.146 188.444,330.964 190.873 C 333.781 193.301,338.292 197.166,340.989 199.461 C 343.685 201.756,349.779 206.966,354.531 211.040 C 366.428 221.239,367.828 222.411,365.961 220.609 C 364.265 218.972,346.908 204.013,344.353 201.986 C 343.439 201.261,339.942 198.286,336.581 195.374 C 333.220 192.463,328.499 188.394,326.090 186.332 C 323.680 184.271,321.385 182.118,320.989 181.548 C 320.306 180.565,319.440 179.610,313.924 173.752 C 310.298 169.901,288.529 146.463,285.996 143.683 C 281.434 138.676,269.304 125.557,265.299 121.297 C 260.864 116.581,260.666 116.220,263.088 117.258 C 263.957 117.631,264.722 117.882,264.787 117.817 C 264.853 117.751,264.016 117.313,262.927 116.844 C 261.818 116.365,260.864 116.125,260.757 116.298 M259.111 116.950 C 258.991 117.144,258.983 117.392,259.092 117.501 C 259.201 117.610,259.290 117.525,259.290 117.314 C 259.290 115.675,259.946 117.444,260.036 119.323 L 260.149 121.718 260.215 119.158 C 260.279 116.669,259.834 115.780,259.111 116.950 M265.687 118.263 C 266.026 118.479,268.280 119.449,270.696 120.418 C 273.112 121.388,276.088 122.634,277.309 123.188 C 278.531 123.742,279.695 124.191,279.897 124.185 C 280.375 124.173,276.140 122.285,270.520 120.005 C 265.362 117.913,264.848 117.728,265.687 118.263 M259.750 126.342 C 259.751 128.885,259.803 129.882,259.866 128.557 C 259.929 127.232,259.928 125.151,259.865 123.933 C 259.801 122.714,259.750 123.799,259.750 126.342 M93.476 126.837 C 94.421 127.927,95.268 128.819,95.359 128.819 C 95.449 128.819,94.751 127.927,93.807 126.837 C 92.862 125.747,92.016 124.855,91.925 124.855 C 91.834 124.855,92.532 125.747,93.476 126.837 M125.516 127.992 C 123.064 128.946,119.050 130.548,116.598 131.552 C 114.145 132.555,110.444 134.067,108.373 134.912 C 106.302 135.757,104.402 136.370,104.149 136.273 C 103.897 136.176,103.606 136.317,103.503 136.587 C 103.134 137.549,102.465 137.026,99.274 133.273 C 97.494 131.181,95.871 129.367,95.666 129.242 C 95.461 129.117,96.185 130.070,97.275 131.358 C 98.365 132.647,99.760 134.312,100.375 135.057 C 100.990 135.802,101.919 136.857,102.439 137.402 C 102.960 137.946,103.386 138.542,103.386 138.725 C 103.386 138.909,103.720 139.049,104.129 139.038 C 104.851 139.017,104.849 139.007,104.046 138.675 L 103.220 138.333 103.964 138.046 C 104.372 137.888,104.707 137.616,104.707 137.441 C 104.707 137.267,105.487 136.826,106.441 136.462 C 107.395 136.098,111.296 134.519,115.111 132.954 C 118.927 131.388,124.054 129.359,126.505 128.444 C 131.759 126.482,132.358 126.185,130.966 126.226 C 130.421 126.243,127.969 127.037,125.516 127.992 M259.420 135.590 C 259.421 138.134,259.473 139.131,259.535 137.806 C 259.598 136.480,259.598 134.400,259.534 133.181 C 259.471 131.963,259.420 133.047,259.420 135.590 M104.377 137.261 C 104.377 137.523,104.228 137.737,104.046 137.737 C 103.865 137.737,103.716 137.431,103.716 137.057 C 103.716 136.683,103.865 136.469,104.046 136.581 C 104.228 136.694,104.377 137.000,104.377 137.261 M259.088 144.509 C 259.088 146.870,259.141 147.793,259.205 146.559 C 259.269 145.326,259.268 143.393,259.204 142.265 C 259.139 141.138,259.087 142.147,259.088 144.509 M106.726 142.527 C 107.006 142.890,108.791 145.045,110.693 147.316 C 112.595 149.587,114.441 151.838,114.796 152.317 C 115.151 152.797,117.448 155.537,119.901 158.407 C 122.353 161.276,125.734 165.268,127.414 167.278 C 129.093 169.289,131.369 172.010,132.471 173.327 C 133.688 174.781,134.383 175.883,134.241 176.134 C 134.061 176.453,134.103 176.459,134.426 176.161 C 134.760 175.853,134.618 175.496,133.731 174.410 C 132.404 172.784,126.065 165.246,121.207 159.517 C 119.291 157.257,117.433 155.016,117.078 154.537 C 116.106 153.224,107.684 143.285,106.900 142.527 L 106.218 141.866 106.726 142.527 M257.437 181.668 C 257.437 184.121,257.489 185.124,257.553 183.898 C 257.617 182.671,257.617 180.665,257.553 179.438 C 257.489 178.212,257.437 179.216,257.437 181.668 M257.106 190.751 C 257.107 193.113,257.159 194.036,257.223 192.802 C 257.287 191.568,257.286 189.636,257.222 188.508 C 257.158 187.380,257.105 188.390,257.106 190.751 M256.778 199.670 C 256.778 202.213,256.830 203.210,256.893 201.885 C 256.956 200.560,256.955 198.479,256.892 197.261 C 256.829 196.042,256.777 197.126,256.778 199.670 M69.752 199.422 C 69.704 200.877,69.788 201.155,70.273 201.151 C 70.657 201.148,70.720 201.063,70.460 200.898 C 70.246 200.761,70.012 199.983,69.940 199.169 L 69.810 197.688 69.752 199.422 M256.425 206.606 C 256.427 207.878,256.487 208.358,256.558 207.672 C 256.630 206.987,256.628 205.946,256.555 205.360 C 256.483 204.774,256.424 205.334,256.425 206.606 M254.425 224.277 C 254.425 225.095,254.490 225.429,254.568 225.021 C 254.647 224.612,254.647 223.943,254.568 223.534 C 254.490 223.126,254.425 223.460,254.425 224.277 M254.095 227.581 C 254.095 228.398,254.159 228.732,254.238 228.324 C 254.317 227.915,254.317 227.246,254.238 226.837 C 254.159 226.429,254.095 226.763,254.095 227.581 M253.765 230.553 C 253.765 231.371,253.829 231.705,253.908 231.296 C 253.986 230.888,253.986 230.219,253.908 229.810 C 253.829 229.401,253.765 229.736,253.765 230.553 M253.428 233.691 C 253.431 234.418,253.499 234.676,253.578 234.265 C 253.657 233.854,253.654 233.260,253.571 232.944 C 253.489 232.628,253.424 232.964,253.428 233.691 M47.409 233.774 C 47.285 234.092,46.594 239.034,45.875 244.756 C 45.155 250.479,44.339 256.794,44.061 258.790 C 43.492 262.877,42.284 272.463,40.315 288.522 C 39.580 294.517,38.829 300.091,38.647 300.908 C 38.185 302.986,36.283 319.056,36.402 319.883 C 36.455 320.256,37.000 316.325,37.612 311.148 C 38.224 305.970,38.798 301.611,38.886 301.461 C 38.974 301.311,39.695 295.960,40.488 289.570 C 41.281 283.180,42.146 276.391,42.411 274.484 C 42.675 272.576,43.278 267.746,43.750 263.749 C 44.221 259.752,44.752 255.813,44.929 254.996 C 45.107 254.178,45.474 251.577,45.746 249.216 C 47.101 237.434,47.554 234.064,47.820 233.799 C 47.986 233.633,49.507 234.717,51.388 236.342 C 56.840 241.054,58.337 242.283,57.515 241.369 C 57.084 240.890,55.616 239.561,54.252 238.416 C 52.888 237.271,50.951 235.628,49.947 234.765 C 47.915 233.018,47.732 232.947,47.409 233.774 M58.560 242.325 C 58.845 242.795,63.419 246.864,63.419 246.648 C 63.419 246.560,62.274 245.467,60.875 244.219 C 59.476 242.970,58.434 242.118,58.560 242.325 M65.259 248.275 C 66.181 249.156,68.782 251.488,71.040 253.459 C 73.297 255.430,74.390 256.321,73.469 255.441 C 72.547 254.560,69.946 252.228,67.689 250.257 C 65.431 248.286,64.338 247.395,65.259 248.275 M251.452 250.702 C 251.452 251.519,251.517 251.854,251.596 251.445 C 251.674 251.036,251.674 250.367,251.596 249.959 C 251.517 249.550,251.452 249.884,251.452 250.702 M251.122 254.005 C 251.122 254.822,251.187 255.157,251.265 254.748 C 251.344 254.339,251.344 253.671,251.265 253.262 C 251.187 252.853,251.122 253.187,251.122 254.005 M250.702 256.482 C 250.702 256.936,250.830 257.308,250.986 257.308 C 251.143 257.308,251.200 256.936,251.113 256.482 C 251.026 256.028,250.898 255.656,250.829 255.656 C 250.759 255.656,250.702 256.028,250.702 256.482 M76.505 258.178 C 77.253 258.880,79.260 260.655,80.964 262.121 C 84.902 265.509,92.177 271.906,95.706 275.084 C 97.205 276.434,98.431 277.454,98.431 277.352 C 98.431 277.181,94.650 273.794,83.426 263.911 C 78.606 259.667,74.228 256.040,76.505 258.178 M99.752 278.613 C 100.369 279.249,100.947 279.769,101.038 279.769 C 101.129 279.769,100.699 279.249,100.083 278.613 C 99.466 277.977,98.888 277.457,98.797 277.457 C 98.706 277.457,99.136 277.977,99.752 278.613 M103.016 281.296 C 107.062 284.963,110.652 288.078,110.652 287.921 C 110.652 287.722,102.855 280.787,101.899 280.136 C 101.536 279.888,102.038 280.411,103.016 281.296 M112.139 289.348 C 112.848 290.074,113.503 290.669,113.594 290.669 C 113.685 290.669,113.179 290.074,112.469 289.348 C 111.759 288.621,111.105 288.026,111.014 288.026 C 110.923 288.026,111.429 288.621,112.139 289.348 M114.051 290.880 C 114.336 291.350,118.910 295.419,118.910 295.202 C 118.910 295.115,117.765 294.022,116.367 292.774 C 114.968 291.525,113.926 290.673,114.051 290.880 M119.567 295.731 C 119.957 296.246,119.954 296.378,119.549 296.634 C 119.252 296.823,119.222 296.936,119.469 296.940 C 120.182 296.949,120.320 296.230,119.710 295.674 C 119.147 295.160,119.138 295.164,119.567 295.731 M97.605 303.220 C 95.412 304.030,96.094 304.039,98.596 303.233 C 99.686 302.882,100.281 302.599,99.917 302.603 C 99.554 302.608,98.514 302.885,97.605 303.220 M88.852 305.863 C 88.172 306.081,88.143 306.132,88.687 306.155 C 89.050 306.171,89.571 306.039,89.843 305.863 C 90.422 305.489,90.020 305.489,88.852 305.863 M69.034 311.824 C 68.672 312.068,68.806 312.099,69.529 311.937 C 70.744 311.665,71.007 311.476,70.162 311.483 C 69.814 311.486,69.306 311.639,69.034 311.824 M60.116 314.465 C 59.116 314.798,58.596 315.069,58.960 315.066 C 59.323 315.063,60.363 314.786,61.272 314.451 C 63.409 313.662,62.486 313.673,60.116 314.465 " stroke="none" fill="#90c3a6" fill-rule="evenodd"></path><path id="path7" d="M237.495 31.627 C 237.501 32.368,239.086 37.971,239.118 37.364 C 239.131 37.114,238.820 35.738,238.428 34.306 C 237.572 31.184,237.624 31.101,239.758 32.183 C 240.678 32.649,241.548 33.024,241.690 33.015 C 242.083 32.991,238.376 31.082,237.903 31.064 C 237.675 31.056,237.492 31.309,237.495 31.627 M245.384 34.681 C 247.273 35.596,248.873 36.291,248.940 36.224 C 249.063 36.101,243.353 33.400,242.444 33.152 C 242.172 33.077,243.494 33.766,245.384 34.681 M250.702 37.159 C 251.519 37.597,252.337 37.955,252.519 37.955 C 252.700 37.955,252.180 37.597,251.363 37.159 C 250.545 36.722,249.727 36.363,249.546 36.363 C 249.364 36.363,249.884 36.722,250.702 37.159 M254.666 38.858 C 254.666 39.081,257.668 40.378,257.824 40.222 C 257.895 40.150,257.214 39.779,256.310 39.397 C 255.405 39.015,254.666 38.772,254.666 38.858 M240.169 41.949 C 240.157 42.221,240.428 43.485,240.770 44.756 C 241.113 46.028,241.404 46.846,241.416 46.573 C 241.428 46.301,241.158 45.037,240.815 43.765 C 240.472 42.494,240.182 41.676,240.169 41.949 M265.202 43.599 C 267.091 44.515,268.691 45.209,268.758 45.142 C 268.882 45.019,263.171 42.318,262.263 42.070 C 261.990 41.996,263.313 42.684,265.202 43.599 M269.657 45.605 C 270.695 46.256,283.834 52.197,283.959 52.072 C 284.066 51.965,270.240 45.548,269.401 45.315 C 269.199 45.259,269.314 45.390,269.657 45.605 M241.509 47.564 C 241.526 48.422,242.046 49.832,242.058 49.050 C 242.063 48.687,241.940 48.092,241.784 47.729 C 241.610 47.324,241.504 47.260,241.509 47.564 M242.521 51.858 C 242.521 52.494,242.589 52.754,242.672 52.436 C 242.755 52.118,242.755 51.598,242.672 51.280 C 242.589 50.962,242.521 51.222,242.521 51.858 M88.770 51.717 C 88.633 51.855,88.537 52.724,88.555 53.647 L 88.588 55.326 88.897 54.005 C 89.234 52.566,89.164 51.316,88.770 51.717 M286.214 53.186 C 286.309 53.340,287.165 53.762,288.115 54.122 C 289.795 54.760,292.576 55.984,296.284 57.718 C 297.283 58.186,298.815 58.885,299.687 59.271 L 301.274 59.975 304.839 67.394 C 306.800 71.475,310.377 78.827,312.789 83.732 C 315.200 88.637,317.514 93.549,317.931 94.647 C 318.653 96.551,320.969 101.413,323.058 105.409 C 324.288 107.762,324.281 107.835,322.791 108.453 C 321.995 108.783,321.788 108.970,322.213 108.976 C 322.576 108.982,323.241 108.704,323.691 108.358 L 324.508 107.730 322.079 102.668 C 320.743 99.883,319.232 96.609,318.722 95.391 C 317.611 92.740,315.515 88.391,308.166 73.493 C 305.119 67.316,302.406 61.728,302.136 61.075 C 301.711 60.047,301.231 59.690,298.552 58.407 C 293.305 55.894,285.969 52.790,286.214 53.186 M89.046 61.573 C 89.221 67.879,90.728 81.818,91.960 88.522 C 92.410 90.974,93.020 94.467,93.314 96.284 C 93.608 98.101,94.211 101.094,94.653 102.935 C 95.601 106.875,95.611 107.019,94.955 107.019 C 94.678 107.019,87.761 103.669,79.585 99.574 C 71.409 95.479,64.575 92.218,64.399 92.327 C 64.021 92.561,64.011 95.994,64.386 96.945 C 64.529 97.308,64.574 96.453,64.485 95.045 C 64.302 92.161,64.404 92.061,66.315 93.255 C 68.928 94.888,95.113 107.739,95.522 107.590 C 95.759 107.503,96.360 107.810,96.857 108.273 C 97.856 109.204,100.133 110.398,118.378 119.561 C 125.261 123.018,131.238 125.846,131.661 125.846 C 132.084 125.846,132.574 126.117,132.751 126.448 C 132.928 126.778,134.578 127.757,136.417 128.622 C 138.256 129.487,139.843 130.408,139.943 130.669 C 140.144 131.193,138.189 149.766,137.739 151.610 C 137.584 152.246,136.888 158.082,136.193 164.578 L 134.930 176.390 132.618 177.335 C 131.346 177.854,129.219 178.686,127.892 179.184 C 126.564 179.682,125.532 180.143,125.599 180.209 C 125.741 180.351,133.006 177.623,134.340 176.927 C 135.401 176.374,135.150 177.963,138.078 153.262 C 138.993 145.541,139.972 137.321,140.252 134.995 C 140.862 129.934,141.065 130.326,136.681 128.126 C 133.397 126.478,132.984 126.099,134.021 125.688 C 137.057 124.483,144.128 121.919,151.775 119.250 C 178.399 109.959,205.136 102.114,230.005 96.296 C 231.974 95.835,233.869 95.458,234.216 95.458 C 234.563 95.458,234.847 95.322,234.847 95.155 C 234.847 94.988,234.936 94.579,235.044 94.247 C 235.187 93.805,235.155 93.760,234.926 94.080 C 234.753 94.321,232.101 95.085,229.032 95.777 C 225.963 96.470,222.188 97.358,220.644 97.751 C 212.311 99.873,201.803 102.702,195.376 104.556 C 183.098 108.098,182.391 108.310,174.566 110.812 C 170.388 112.147,165.780 113.614,164.327 114.071 C 159.997 115.432,141.215 122.011,136.470 123.829 C 134.047 124.757,131.919 125.516,131.741 125.516 C 131.431 125.516,111.057 115.454,101.667 110.663 C 96.464 108.008,96.750 108.370,95.470 102.828 C 92.459 89.786,90.193 74.389,89.184 60.116 C 88.898 56.071,88.895 56.101,89.046 61.573 M64.799 99.728 C 64.746 101.630,65.848 128.676,66.718 146.806 C 66.900 150.612,66.939 153.833,66.803 153.963 C 66.667 154.093,64.624 155.224,62.263 156.477 C 36.501 170.143,21.363 183.621,23.441 191.042 C 23.857 192.528,26.218 195.211,27.110 195.211 C 27.313 195.211,26.759 194.558,25.878 193.761 L 24.277 192.312 24.277 189.702 C 24.277 182.960,33.675 174.346,54.666 161.846 C 59.849 158.760,66.697 155.109,66.908 155.320 C 67.145 155.557,69.028 194.850,69.030 199.597 C 69.030 201.012,69.162 201.556,69.540 201.701 C 70.038 201.893,73.169 200.887,72.903 200.621 C 72.829 200.547,72.208 200.721,71.523 201.007 C 69.910 201.681,69.230 201.430,69.455 200.243 C 69.613 199.408,68.425 172.780,67.719 161.354 C 67.551 158.629,67.334 154.319,67.237 151.775 C 66.941 143.977,65.085 101.013,64.969 99.257 C 64.869 97.759,64.853 97.802,64.799 99.728 M312.469 112.320 C 311.652 112.655,311.206 112.933,311.478 112.938 C 311.751 112.943,312.568 112.666,313.295 112.322 C 314.982 111.523,314.418 111.522,312.469 112.320 M305.698 114.928 C 303.957 115.752,304.291 115.769,306.358 114.962 C 307.267 114.607,307.787 114.314,307.514 114.310 C 307.242 114.306,306.424 114.584,305.698 114.928 M289.077 121.334 C 287.566 121.900,286.465 122.408,286.629 122.463 C 286.952 122.570,292.320 120.594,292.320 120.367 C 292.320 120.147,291.967 120.252,289.077 121.334 M281.566 124.338 C 280.957 124.789,280.991 124.840,282.246 125.356 C 282.973 125.655,285.425 126.689,287.696 127.653 C 289.967 128.617,294.575 130.558,297.936 131.965 C 301.296 133.373,307.391 135.935,311.478 137.660 C 315.566 139.384,319.448 140.985,320.105 141.218 C 320.762 141.451,321.580 141.789,321.922 141.971 C 322.264 142.152,323.732 142.777,325.186 143.358 C 326.639 143.940,329.092 144.968,330.636 145.643 C 334.016 147.121,332.577 144.546,343.194 168.126 C 347.570 177.845,351.432 186.391,351.776 187.118 C 352.121 187.845,355.696 195.723,359.721 204.624 C 363.747 213.526,367.191 220.994,367.374 221.220 C 367.558 221.446,367.630 221.930,367.535 222.294 C 367.439 222.659,367.496 222.874,367.661 222.772 C 368.228 222.422,367.766 220.987,365.648 216.515 C 365.218 215.607,364.539 214.121,364.139 213.212 C 363.740 212.304,362.801 210.275,362.053 208.703 C 361.305 207.131,360.694 205.730,360.694 205.590 C 360.694 205.449,360.188 204.283,359.571 202.997 C 357.718 199.142,338.841 157.563,337.875 155.212 C 337.384 154.014,336.829 152.751,336.642 152.405 C 336.455 152.059,335.772 150.628,335.124 149.227 L 333.946 146.678 331.217 145.400 C 329.717 144.698,326.854 143.484,324.855 142.703 C 322.857 141.922,318.324 140.052,314.781 138.548 C 311.239 137.044,306.557 135.079,304.377 134.182 C 283.407 125.549,281.577 124.715,282.414 124.186 C 282.685 124.015,282.749 123.872,282.557 123.870 C 282.365 123.867,281.919 124.078,281.566 124.338 M253.588 134.514 C 253.495 134.755,252.127 135.444,250.548 136.044 C 248.969 136.643,247.733 137.191,247.803 137.261 C 247.872 137.330,249.110 136.933,250.554 136.377 C 253.116 135.392,254.321 134.640,253.944 134.263 C 253.841 134.160,253.681 134.273,253.588 134.514 M237.730 140.942 C 235.591 141.775,233.897 142.513,233.965 142.581 C 234.088 142.703,241.815 139.798,242.084 139.529 C 242.432 139.181,241.344 139.534,237.730 140.942 M226.304 144.426 C 226.267 145.171,226.393 145.328,227.002 145.296 C 227.529 145.269,227.583 145.215,227.188 145.111 C 226.881 145.030,226.567 144.638,226.490 144.241 C 226.374 143.646,226.341 143.678,226.304 144.426 M257.767 163.336 C 257.767 165.698,257.820 166.621,257.884 165.387 C 257.947 164.153,257.947 162.221,257.883 161.093 C 257.818 159.965,257.766 160.974,257.767 163.336 M257.436 172.254 C 257.437 174.616,257.490 175.539,257.553 174.305 C 257.617 173.071,257.617 171.139,257.552 170.011 C 257.488 168.883,257.436 169.893,257.436 172.254 M257.108 181.173 C 257.109 183.716,257.160 184.713,257.223 183.388 C 257.286 182.063,257.286 179.982,257.222 178.763 C 257.159 177.545,257.108 178.629,257.108 181.173 M123.039 181.066 C 122.130 181.424,121.153 181.929,120.866 182.188 C 120.579 182.447,120.038 182.659,119.663 182.659 C 118.941 182.659,110.683 185.694,109.728 186.310 C 108.994 186.784,109.279 186.687,114.734 184.608 C 119.922 182.631,119.786 182.632,120.608 184.558 C 120.976 185.421,121.545 186.722,121.872 187.448 C 122.199 188.175,123.162 190.458,124.012 192.522 C 125.497 196.127,132.513 210.905,132.945 211.337 C 133.346 211.738,132.446 209.695,128.861 202.063 C 124.982 193.804,122.438 187.939,122.646 187.732 C 122.717 187.661,123.522 189.351,124.436 191.489 C 126.478 196.268,134.496 213.096,134.655 212.937 C 134.718 212.873,132.901 208.822,130.615 203.933 C 126.364 194.839,122.874 186.911,122.874 186.346 C 122.874 186.172,122.504 185.383,122.052 184.592 C 120.840 182.472,120.941 182.190,123.204 181.364 C 124.294 180.967,125.186 180.575,125.186 180.494 C 125.186 180.266,124.821 180.363,123.039 181.066 M122.528 186.944 C 122.549 187.602,121.767 186.445,121.308 185.136 C 120.540 182.951,120.564 182.895,121.519 184.641 C 122.065 185.640,122.519 186.676,122.528 186.944 M103.551 188.597 C 100.826 189.658,95.846 191.585,92.486 192.881 C 83.437 196.368,77.932 198.491,76.631 198.994 C 75.995 199.241,74.987 199.625,74.391 199.848 C 73.794 200.071,73.384 200.331,73.479 200.426 C 73.573 200.520,74.581 200.213,75.719 199.742 C 79.254 198.278,86.847 195.351,91.164 193.787 C 95.354 192.269,108.721 186.988,108.973 186.752 C 109.344 186.404,108.097 186.828,103.551 188.597 M24.336 204.260 C 24.239 204.514,24.295 205.888,24.462 207.315 C 24.628 208.742,25.278 215.334,25.905 221.965 C 26.532 228.596,27.201 234.988,27.392 236.168 C 27.583 237.349,28.041 241.808,28.410 246.078 C 29.081 253.820,29.349 256.158,29.542 255.938 C 29.633 255.833,28.534 243.843,25.777 214.864 C 24.852 205.147,24.822 204.353,25.400 204.977 C 25.716 205.318,35.402 217.514,37.490 220.198 C 45.451 230.438,47.629 232.866,48.845 232.857 C 50.006 232.849,52.547 232.449,71.016 229.367 C 75.830 228.563,83.782 227.246,88.687 226.439 C 93.592 225.632,101.693 224.297,106.689 223.472 C 125.209 220.412,128.812 219.867,129.036 220.090 C 129.302 220.356,128.063 231.352,122.756 275.805 C 121.320 287.833,120.481 295.983,120.659 296.162 C 120.755 296.258,120.934 295.321,121.057 294.080 C 121.180 292.840,121.404 291.305,121.556 290.669 C 121.888 289.277,122.274 286.114,123.388 275.640 C 123.852 271.280,124.310 267.490,124.405 267.217 C 124.569 266.751,125.328 260.590,127.998 238.040 C 128.619 232.802,129.274 227.714,129.456 226.733 C 129.637 225.752,129.887 223.610,130.010 221.971 C 130.268 218.557,130.486 218.736,127.002 219.499 C 125.731 219.777,120.677 220.667,115.772 221.475 C 110.867 222.284,105.070 223.242,102.890 223.604 C 100.710 223.967,96.623 224.633,93.807 225.084 C 90.991 225.534,84.600 226.585,79.604 227.419 C 74.608 228.253,67.027 229.514,62.758 230.221 C 58.489 230.929,53.732 231.738,52.188 232.021 C 47.670 232.847,48.132 233.064,44.418 228.374 C 42.606 226.086,38.671 221.143,35.673 217.390 C 32.675 213.638,29.037 209.044,27.587 207.183 C 24.866 203.688,24.635 203.481,24.336 204.260 M133.926 213.545 C 134.368 214.545,134.976 215.697,135.277 216.105 C 135.921 216.976,135.884 216.874,134.496 213.955 C 133.226 211.283,132.785 210.965,133.926 213.545 M135.325 214.529 C 135.627 215.163,135.933 215.623,136.004 215.551 C 136.155 215.400,135.153 213.377,134.927 213.377 C 134.843 213.377,135.023 213.896,135.325 214.529 M137.077 218.002 C 137.627 219.092,138.152 219.983,138.242 219.983 C 138.333 219.983,137.957 219.092,137.407 218.002 C 136.857 216.912,136.332 216.020,136.242 216.020 C 136.151 216.020,136.527 216.912,137.077 218.002 M254.756 217.671 C 254.756 218.489,254.820 218.823,254.899 218.415 C 254.977 218.006,254.977 217.337,254.899 216.928 C 254.820 216.519,254.756 216.854,254.756 217.671 M136.251 218.002 C 136.533 218.547,136.838 218.993,136.929 218.993 C 137.019 218.993,136.863 218.547,136.581 218.002 C 136.300 217.457,135.995 217.011,135.904 217.011 C 135.813 217.011,135.969 217.457,136.251 218.002 M254.425 220.644 C 254.425 221.462,254.490 221.796,254.568 221.387 C 254.647 220.979,254.647 220.310,254.568 219.901 C 254.490 219.492,254.425 219.827,254.425 220.644 M254.088 223.782 C 254.092 224.509,254.160 224.767,254.239 224.356 C 254.318 223.945,254.315 223.351,254.232 223.035 C 254.149 222.719,254.085 223.055,254.088 223.782 M229.567 239.059 C 229.571 239.720,229.653 239.840,229.867 239.501 C 230.029 239.245,230.085 238.837,229.992 238.593 C 229.724 237.895,229.562 238.072,229.567 239.059 M229.898 242.546 C 229.895 243.302,230.025 243.723,230.223 243.600 C 230.640 243.342,230.640 242.430,230.223 241.784 C 229.985 241.416,229.901 241.612,229.898 242.546 M251.787 243.931 C 251.790 244.839,251.854 245.171,251.930 244.669 C 252.006 244.167,252.004 243.424,251.925 243.018 C 251.847 242.611,251.785 243.022,251.787 243.931 M230.246 246.306 C 230.233 247.067,230.372 247.782,230.553 247.894 C 230.955 248.142,230.955 246.516,230.553 245.582 C 230.333 245.069,230.264 245.230,230.246 246.306 M251.452 247.069 C 251.452 247.886,251.517 248.220,251.596 247.812 C 251.674 247.403,251.674 246.734,251.596 246.325 C 251.517 245.917,251.452 246.251,251.452 247.069 M251.116 250.206 C 251.119 250.933,251.187 251.191,251.266 250.781 C 251.345 250.370,251.342 249.775,251.259 249.459 C 251.176 249.144,251.112 249.480,251.116 250.206 M230.775 257.969 C 230.866 262.783,231.002 266.784,231.077 266.859 C 231.495 267.280,231.313 252.731,230.873 250.537 C 230.728 249.810,230.683 253.154,230.775 257.969 M250.261 255.216 C 250.140 255.337,250.054 255.820,250.070 256.290 C 250.098 257.127,250.103 257.125,250.389 256.169 C 250.689 255.163,250.645 254.833,250.261 255.216 M29.976 260.776 C 30.069 262.048,30.200 263.150,30.267 263.226 C 30.509 263.501,30.334 259.767,30.074 259.125 C 29.922 258.747,29.880 259.453,29.976 260.776 M30.457 264.740 C 30.430 266.450,31.944 281.933,31.999 280.499 C 32.037 279.479,30.841 265.519,30.592 264.079 C 30.530 263.716,30.469 264.013,30.457 264.740 M32.116 283.072 C 32.116 283.708,32.184 283.968,32.267 283.650 C 32.350 283.332,32.350 282.812,32.267 282.494 C 32.184 282.176,32.116 282.436,32.116 283.072 M222.043 295.939 C 221.632 296.282,221.112 296.628,220.887 296.708 C 220.663 296.789,220.580 296.963,220.704 297.097 C 221.014 297.431,222.956 296.241,222.956 295.717 C 222.956 295.184,222.945 295.186,222.043 295.939 M33.790 299.257 C 33.790 300.256,33.852 300.665,33.928 300.165 C 34.003 299.666,34.003 298.848,33.928 298.348 C 33.852 297.849,33.790 298.258,33.790 299.257 M34.116 302.725 C 34.118 303.633,34.183 303.966,34.258 303.464 C 34.334 302.962,34.332 302.218,34.254 301.812 C 34.176 301.406,34.113 301.817,34.116 302.725 M34.446 306.358 C 34.449 307.267,34.513 307.599,34.589 307.097 C 34.665 306.595,34.663 305.852,34.584 305.445 C 34.506 305.039,34.444 305.450,34.446 306.358 " stroke="none" fill="#6a718f" fill-rule="evenodd"></path></g></svg>